<svg id="svg" version="1.1" xmlns="http://www.w3.org/2000/svg" xmlns:xlink="http://www.w3.org/1999/xlink" width="400" height="302.27743271221533" viewBox="0, 0, 400,302.27743271221533"><g id="svgg"><path id="path0" d="M248.904 13.192 C 248.981 13.315,244.761 15.484,244.306 15.555 C 244.231 15.567,242.988 16.251,241.546 17.074 C 240.104 17.897,238.768 18.574,238.578 18.579 C 238.389 18.584,238.233 18.691,238.233 18.818 C 238.233 18.944,238.047 19.048,237.819 19.048 C 237.591 19.048,237.405 19.149,237.405 19.272 C 237.405 19.396,236.970 19.667,236.439 19.876 C 235.908 20.084,235.473 20.363,235.473 20.496 C 235.473 20.628,235.348 20.659,235.195 20.565 C 235.042 20.470,234.847 20.575,234.762 20.797 C 234.618 21.171,233.676 21.631,233.195 21.562 C 233.081 21.546,232.988 21.640,232.988 21.772 C 232.988 21.903,232.057 22.556,230.919 23.221 C 229.781 23.886,228.850 24.531,228.849 24.654 C 228.848 24.777,228.723 24.801,228.571 24.707 C 228.420 24.613,228.295 24.656,228.295 24.802 C 228.295 24.949,227.705 25.411,226.984 25.830 C 226.263 26.249,225.611 26.672,225.535 26.770 C 225.459 26.868,224.527 27.555,223.464 28.296 C 222.402 29.037,221.346 29.808,221.118 30.009 C 220.890 30.211,219.275 31.503,217.529 32.882 C 215.783 34.261,214.293 35.472,214.217 35.573 C 214.141 35.674,213.400 36.314,212.571 36.995 C 211.097 38.206,210.436 38.826,205.516 43.616 C 202.536 46.518,199.862 49.405,199.862 49.721 C 199.862 49.851,200.769 50.985,201.877 52.239 C 224.784 78.176,237.503 110.543,239.221 147.274 C 239.321 149.400,239.491 151.236,239.600 151.355 C 239.709 151.474,239.802 151.412,239.808 151.217 C 239.925 147.045,240.290 142.669,240.749 139.940 C 241.067 138.053,241.362 136.259,241.405 135.956 C 242.120 130.908,247.009 118.403,250.013 113.939 C 250.518 113.188,250.932 112.528,250.932 112.472 C 250.932 112.343,253.187 109.006,253.554 108.591 C 253.706 108.420,254.017 108.005,254.244 107.669 C 254.472 107.332,254.845 106.827,255.072 106.546 C 255.300 106.265,255.790 105.624,256.162 105.122 C 257.090 103.867,266.305 94.686,266.636 94.686 C 266.783 94.686,267.067 94.528,267.268 94.336 C 267.469 94.143,268.440 93.399,269.427 92.681 C 270.414 91.964,271.408 91.211,271.636 91.008 C 272.141 90.557,279.853 86.098,280.293 86.002 C 280.466 85.964,281.593 85.466,282.798 84.895 C 284.002 84.324,285.120 83.833,285.282 83.806 C 285.444 83.778,285.825 83.618,286.128 83.451 C 286.432 83.283,286.773 83.131,286.886 83.112 C 288.061 82.919,288.786 82.706,288.901 82.520 C 289.033 82.307,249.498 13.588,249.032 13.219 C 248.910 13.123,248.852 13.110,248.904 13.192 M160.384 154.037 C 160.056 163.905,156.357 178.048,152.508 184.144 C 152.135 184.736,151.829 185.399,151.829 185.617 C 151.829 185.835,151.736 186.055,151.622 186.105 C 151.508 186.156,151.042 186.911,150.587 187.784 C 150.131 188.656,149.665 189.370,149.551 189.371 C 149.438 189.372,149.344 189.533,149.344 189.730 C 149.344 189.927,149.156 190.331,148.926 190.627 C 148.403 191.302,146.584 193.809,146.032 194.615 C 145.555 195.312,145.077 195.918,143.634 197.654 C 142.290 199.270,135.031 206.463,134.022 207.177 C 133.593 207.481,133.056 207.916,132.828 208.144 C 132.600 208.371,132.130 208.744,131.783 208.972 C 131.437 209.199,130.060 210.137,128.724 211.055 C 126.193 212.794,120.539 216.164,119.987 216.262 C 119.812 216.294,119.156 216.586,118.530 216.912 C 117.903 217.239,117.313 217.428,117.218 217.333 C 117.124 217.239,117.046 217.281,117.046 217.428 C 117.046 217.641,115.430 218.417,114.838 218.487 C 114.762 218.497,114.576 218.573,114.424 218.658 C 114.272 218.743,113.589 218.982,112.905 219.189 C 112.222 219.397,111.451 219.706,111.191 219.877 C 110.772 220.154,112.932 224.020,130.653 254.716 L 150.587 289.244 151.760 288.589 C 152.405 288.228,152.933 287.994,152.933 288.069 C 152.933 288.143,153.616 287.818,154.451 287.347 C 155.286 286.875,155.970 286.565,155.970 286.658 C 155.970 286.750,156.435 286.536,157.005 286.182 C 158.897 285.007,163.006 282.830,163.216 282.893 C 163.330 282.926,163.423 282.826,163.423 282.671 C 163.423 282.389,164.755 281.720,165.148 281.805 C 165.262 281.829,165.355 281.729,165.355 281.581 C 165.355 281.234,166.887 280.436,167.115 280.664 C 167.210 280.759,167.288 280.712,167.288 280.558 C 167.288 280.404,168.313 279.652,169.565 278.887 C 170.818 278.121,173.333 276.430,175.155 275.129 C 179.266 272.193,179.612 271.938,180.655 271.084 C 181.118 270.704,181.732 270.207,182.020 269.979 C 182.307 269.752,182.855 269.286,183.237 268.944 C 183.619 268.602,184.007 268.321,184.098 268.320 C 184.190 268.318,184.773 267.852,185.394 267.284 C 186.015 266.717,187.250 265.631,188.140 264.872 C 189.030 264.113,190.285 262.978,190.930 262.350 C 191.575 261.721,192.160 261.265,192.230 261.335 C 192.301 261.406,192.440 261.205,192.540 260.890 C 192.640 260.575,192.817 260.317,192.933 260.317 C 193.155 260.317,197.741 255.725,199.411 253.830 C 200.221 252.912,200.329 252.649,200.054 252.270 C 199.873 252.020,198.223 250.032,196.388 247.854 C 177.044 224.886,165.077 196.741,162.039 167.068 C 161.733 164.076,161.360 160.788,161.211 159.760 C 161.061 158.733,160.930 156.993,160.919 155.895 C 160.896 153.561,160.451 152.015,160.384 154.037 " stroke="none" fill="#0181ff" fill-rule="evenodd"></path><path id="path1" d="M83.563 0.163 C 83.532 0.189,81.705 0.296,79.503 0.401 C 77.302 0.506,75.066 0.634,74.534 0.685 C 74.003 0.736,72.651 0.855,71.530 0.948 C 70.409 1.041,69.415 1.164,69.321 1.221 C 69.228 1.277,68.344 1.412,67.357 1.519 C 66.370 1.627,65.314 1.764,65.010 1.825 C 64.707 1.886,63.927 1.992,63.277 2.061 C 62.627 2.130,62.006 2.241,61.896 2.308 C 61.787 2.375,61.232 2.504,60.663 2.595 C 59.782 2.736,58.329 2.972,57.281 3.145 C 57.129 3.170,56.881 3.264,56.729 3.354 C 56.577 3.444,55.832 3.608,55.072 3.717 C 54.313 3.826,51.851 4.409,49.600 5.013 C 47.349 5.617,45.269 6.129,44.976 6.151 C 44.684 6.173,44.444 6.263,44.444 6.351 C 44.444 6.517,41.842 7.278,41.795 7.126 C 41.781 7.078,41.594 7.177,41.381 7.346 C 41.168 7.515,40.621 7.738,40.166 7.842 C 39.710 7.946,38.716 8.265,37.957 8.551 C 37.198 8.838,35.832 9.341,34.921 9.670 C 34.010 9.999,33.016 10.358,32.712 10.469 C 32.409 10.580,31.601 10.927,30.918 11.240 C 28.752 12.232,25.986 13.323,25.788 13.262 C 25.683 13.230,25.521 13.307,25.428 13.434 C 25.248 13.680,22.334 15.183,22.037 15.183 C 21.940 15.183,21.092 15.618,20.152 16.149 C 19.212 16.680,18.268 17.115,18.055 17.115 C 17.842 17.115,17.667 17.239,17.667 17.391 C 17.667 17.543,17.573 17.636,17.457 17.598 C 17.341 17.560,15.260 18.679,12.833 20.083 C 6.788 23.582,6.830 23.556,6.387 23.968 C 6.170 24.169,5.328 24.708,4.515 25.167 C 3.702 25.626,3.037 26.086,3.037 26.188 C 3.037 26.291,2.496 26.670,1.835 27.031 C 1.174 27.392,0.509 27.886,0.357 28.130 C 0.132 28.490,38.886 96.397,39.888 97.399 C 39.968 97.479,40.269 97.305,40.557 97.012 C 40.845 96.720,41.400 96.232,41.790 95.928 C 42.179 95.625,42.905 95.021,43.402 94.586 C 43.900 94.152,44.803 93.469,45.411 93.068 C 46.018 92.668,46.639 92.204,46.791 92.039 C 46.943 91.873,48.123 91.133,49.413 90.395 C 50.704 89.657,51.822 88.985,51.898 88.902 C 51.974 88.818,52.409 88.565,52.864 88.339 C 53.320 88.112,54.418 87.510,55.305 87.000 C 56.192 86.489,57.062 86.048,57.237 86.018 C 57.413 85.988,58.398 85.558,59.426 85.063 C 60.455 84.567,61.517 84.119,61.788 84.067 C 62.059 84.015,62.770 83.764,63.369 83.510 C 63.968 83.255,64.707 82.988,65.010 82.915 C 65.751 82.739,66.038 82.653,66.529 82.462 C 66.965 82.293,69.835 81.482,70.181 81.430 C 70.292 81.413,70.778 81.287,71.260 81.149 C 71.742 81.010,72.642 80.822,73.260 80.729 C 73.879 80.637,74.460 80.515,74.552 80.459 C 74.895 80.246,78.603 79.740,80.507 79.645 C 81.286 79.607,82.063 79.489,82.232 79.385 C 82.622 79.144,93.752 79.129,94.140 79.369 C 94.298 79.466,95.137 79.599,96.006 79.664 C 97.891 79.804,99.222 79.965,100.345 80.188 C 104.376 80.988,105.583 81.253,107.384 81.738 C 108.523 82.045,109.641 82.371,109.869 82.463 C 110.421 82.686,110.435 82.690,111.387 82.940 C 111.843 83.060,112.495 83.332,112.836 83.545 C 113.178 83.758,113.458 83.865,113.458 83.781 C 113.458 83.698,113.830 83.822,114.286 84.058 C 114.741 84.294,115.114 84.414,115.114 84.326 C 115.114 84.237,115.455 84.346,115.873 84.567 C 116.291 84.788,118.061 85.662,119.807 86.508 C 122.773 87.947,128.342 91.127,129.218 91.882 C 129.432 92.066,130.538 92.914,131.677 93.767 C 134.681 96.018,136.408 97.517,139.094 100.207 C 142.526 103.643,143.514 104.820,147.901 110.697 C 148.639 111.685,152.981 119.251,153.040 119.650 C 153.067 119.834,153.536 120.845,154.081 121.897 C 154.627 122.949,155.429 124.865,155.864 126.156 C 156.299 127.447,156.737 128.565,156.837 128.640 C 156.937 128.716,157.086 129.151,157.168 129.607 C 157.340 130.563,157.424 130.884,158.148 133.380 C 158.442 134.393,158.614 135.290,158.529 135.375 C 158.445 135.459,158.503 135.687,158.659 135.880 C 158.920 136.203,159.374 138.483,159.719 141.201 C 159.797 141.808,159.904 142.616,159.958 142.995 C 160.012 143.375,160.145 144.987,160.252 146.578 C 160.360 148.170,160.553 149.745,160.680 150.080 C 160.807 150.414,160.812 150.727,160.691 150.775 C 160.570 150.823,160.566 151.608,160.682 152.519 C 160.797 153.430,160.902 155.011,160.915 156.034 C 160.928 157.056,161.061 158.733,161.211 159.760 C 161.360 160.788,161.733 164.076,162.039 167.068 C 165.077 196.742,177.010 224.810,196.388 247.861 C 198.223 250.044,200.077 252.342,200.509 252.968 C 201.336 254.167,208.849 261.693,211.566 264.044 C 212.443 264.803,213.451 265.678,213.806 265.989 C 214.161 266.299,214.971 266.983,215.605 267.507 C 216.240 268.032,217.075 268.741,217.461 269.082 C 217.847 269.424,218.237 269.704,218.329 269.705 C 218.420 269.705,218.961 270.134,219.531 270.657 C 220.100 271.180,220.568 271.521,220.570 271.414 C 220.572 271.308,220.666 271.346,220.777 271.498 C 220.983 271.778,222.619 273.055,223.879 273.920 C 224.258 274.180,225.252 274.885,226.087 275.487 C 226.922 276.088,228.568 277.155,229.745 277.859 C 230.921 278.562,231.884 279.258,231.884 279.406 C 231.884 279.553,231.998 279.603,232.137 279.518 C 232.275 279.432,232.431 279.467,232.482 279.597 C 232.626 279.964,241.203 284.861,241.385 284.679 C 241.473 284.591,241.546 284.642,241.546 284.794 C 241.546 284.946,241.701 285.073,241.891 285.076 C 242.081 285.080,243.002 285.535,243.939 286.088 C 244.875 286.642,245.732 287.095,245.844 287.095 C 246.163 287.095,249.119 288.588,249.306 288.843 C 249.399 288.970,249.562 289.045,249.669 289.010 C 249.776 288.974,251.191 289.511,252.813 290.203 C 255.556 291.372,256.664 291.825,257.005 291.914 C 257.746 292.108,259.213 292.764,259.213 292.901 C 259.213 292.997,259.369 293.086,259.558 293.100 C 260.168 293.142,260.957 293.385,263.354 294.272 C 265.830 295.188,266.341 295.346,267.564 295.573 C 267.981 295.651,268.323 295.804,268.323 295.914 C 268.323 296.023,268.478 296.123,268.668 296.136 C 268.858 296.149,269.324 296.238,269.703 296.334 C 270.083 296.430,270.695 296.571,271.064 296.647 C 271.433 296.723,271.836 296.848,271.960 296.924 C 272.084 297.001,272.435 297.119,272.739 297.186 C 273.043 297.253,273.571 297.377,273.913 297.461 C 274.255 297.544,274.836 297.675,275.205 297.751 C 275.574 297.827,275.977 297.952,276.101 298.029 C 276.352 298.184,277.012 298.323,278.658 298.569 C 279.268 298.660,279.894 298.814,280.049 298.911 C 280.204 299.008,280.455 299.108,280.607 299.133 C 280.759 299.158,281.256 299.244,281.712 299.323 C 282.167 299.403,283.037 299.550,283.644 299.650 C 285.461 299.949,285.852 300.024,285.852 300.075 C 285.852 300.102,286.163 300.157,286.542 300.197 C 286.922 300.238,287.729 300.360,288.337 300.470 C 290.354 300.834,292.738 301.180,293.996 301.292 C 294.679 301.353,296.046 301.483,297.032 301.582 C 298.019 301.680,299.464 301.799,300.243 301.845 C 301.023 301.891,301.768 301.988,301.900 302.061 C 302.228 302.243,322.161 302.085,324.224 301.885 C 326.542 301.660,329.270 301.423,330.573 301.334 C 331.180 301.292,331.863 301.187,332.091 301.101 C 332.465 300.959,333.783 300.755,336.094 300.482 C 336.549 300.428,337.295 300.308,337.750 300.216 C 338.206 300.123,339.883 299.814,341.477 299.529 C 343.071 299.244,344.562 298.942,344.790 298.858 C 345.188 298.710,345.925 298.552,347.688 298.234 C 348.144 298.152,348.652 297.973,348.818 297.837 C 348.983 297.701,349.193 297.663,349.282 297.753 C 349.372 297.842,349.609 297.814,349.809 297.689 C 350.203 297.443,350.692 297.310,351.553 297.215 C 351.856 297.182,352.229 297.082,352.381 296.993 C 352.533 296.905,353.030 296.734,353.485 296.613 C 353.941 296.493,354.469 296.351,354.658 296.299 C 354.848 296.247,355.159 296.170,355.349 296.128 C 355.538 296.085,355.818 295.977,355.970 295.888 C 356.121 295.798,356.929 295.568,357.764 295.376 C 358.599 295.185,359.425 294.915,359.599 294.777 C 359.879 294.557,360.320 294.420,361.552 294.172 C 361.737 294.134,361.975 294.017,362.081 293.912 C 362.186 293.806,362.501 293.720,362.779 293.720 C 363.057 293.720,363.285 293.616,363.285 293.490 C 363.285 293.363,363.440 293.246,363.630 293.230 C 364.188 293.182,364.783 293.026,365.079 292.851 C 365.545 292.576,367.551 291.947,367.771 292.007 C 367.885 292.038,367.978 291.953,367.978 291.817 C 367.978 291.593,369.261 291.131,369.426 291.296 C 369.465 291.334,369.962 291.078,370.531 290.726 C 371.101 290.374,371.567 290.164,371.567 290.258 C 371.567 290.353,372.126 290.103,372.809 289.702 C 373.492 289.302,374.051 289.055,374.051 289.153 C 374.051 289.251,374.734 288.957,375.569 288.499 C 376.404 288.040,377.088 287.720,377.088 287.787 C 377.088 287.854,377.714 287.539,378.480 287.087 C 379.246 286.636,380.053 286.266,380.274 286.266 C 380.495 286.266,380.676 286.121,380.676 285.944 C 380.676 285.767,380.748 285.694,380.837 285.783 C 381.006 285.952,393.292 278.967,394.215 278.176 C 394.512 277.922,394.755 277.775,394.755 277.849 C 394.755 277.924,394.972 277.792,395.238 277.556 C 396.042 276.843,398.433 275.252,399.243 274.890 C 399.662 274.702,399.973 274.474,399.934 274.382 C 399.047 272.305,359.789 205.010,359.659 205.344 C 359.562 205.593,358.910 206.224,358.209 206.746 C 357.509 207.267,356.936 207.816,356.936 207.965 C 356.936 208.114,356.863 208.163,356.775 208.075 C 356.686 207.986,356.385 208.121,356.104 208.374 C 354.121 210.165,344.529 216.149,343.640 216.149 C 343.491 216.149,342.851 216.453,342.216 216.825 C 341.582 217.197,341.001 217.499,340.925 217.496 C 340.849 217.493,340.414 217.643,339.959 217.828 C 339.503 218.014,339.006 218.196,338.854 218.233 C 338.703 218.269,338.392 218.344,338.164 218.397 C 337.937 218.451,337.688 218.564,337.612 218.648 C 337.536 218.732,336.667 219.080,335.680 219.421 C 334.090 219.971,333.598 220.121,332.505 220.390 C 332.353 220.427,331.794 220.602,331.263 220.778 C 330.230 221.120,328.986 221.400,328.088 221.492 C 327.785 221.523,327.412 221.622,327.260 221.712 C 326.923 221.912,323.790 222.431,322.015 222.582 C 321.560 222.620,321.063 222.722,320.911 222.807 C 319.992 223.325,303.244 223.291,303.244 222.771 C 303.244 222.740,302.809 222.669,302.277 222.613 C 300.043 222.378,297.220 221.905,296.894 221.712 C 296.743 221.622,296.370 221.523,296.066 221.492 C 295.161 221.399,293.920 221.119,292.892 220.775 C 292.360 220.597,291.863 220.443,291.787 220.433 C 291.089 220.338,286.641 218.766,286.512 218.568 C 286.419 218.426,286.232 218.320,286.098 218.333 C 285.702 218.368,283.967 217.752,283.368 217.363 C 283.064 217.166,282.723 216.997,282.610 216.988 C 282.353 216.967,279.829 215.785,279.641 215.597 C 279.565 215.521,279.338 215.425,279.136 215.382 C 278.534 215.257,272.464 211.704,272.464 211.477 C 272.464 211.363,272.122 211.114,271.705 210.925 C 271.287 210.737,270.263 210.064,269.428 209.432 C 268.594 208.799,267.744 208.157,267.540 208.006 C 267.336 207.854,266.746 207.330,266.228 206.841 C 265.710 206.353,265.286 206.006,265.286 206.069 C 265.286 206.407,259.460 200.685,257.695 198.613 C 256.936 197.722,256.039 196.693,255.702 196.326 C 255.366 195.960,255.019 195.437,254.933 195.164 C 254.846 194.891,254.594 194.598,254.372 194.513 C 254.150 194.428,253.968 194.225,253.968 194.062 C 253.968 193.899,253.720 193.499,253.417 193.174 C 253.113 192.848,252.346 191.722,251.711 190.671 C 251.075 189.620,250.383 188.587,250.172 188.376 C 249.961 188.164,249.868 187.992,249.965 187.992 C 250.063 187.992,249.947 187.795,249.707 187.555 C 249.467 187.315,249.333 187.018,249.409 186.894 C 249.486 186.771,249.345 186.591,249.096 186.496 C 248.848 186.400,248.714 186.253,248.799 186.167 C 248.942 186.025,247.982 184.076,246.774 182.057 C 246.502 181.601,246.273 181.134,246.266 181.018 C 246.258 180.903,245.926 180.095,245.527 179.224 C 245.128 178.353,244.761 177.430,244.711 177.175 C 244.662 176.919,244.484 176.453,244.316 176.139 C 244.148 175.826,244.092 175.569,244.190 175.569 C 244.289 175.569,244.166 175.259,243.918 174.879 C 243.669 174.500,243.524 174.189,243.596 174.189 C 243.668 174.189,243.534 173.730,243.300 173.169 C 243.065 172.608,242.823 171.925,242.762 171.651 C 242.700 171.377,242.592 170.935,242.520 170.669 C 242.012 168.783,241.786 167.888,241.667 167.288 C 241.592 166.908,241.464 166.412,241.383 166.186 C 241.302 165.959,241.169 165.152,241.088 164.392 C 241.006 163.631,240.892 162.933,240.835 162.840 C 240.705 162.626,240.167 158.076,239.991 155.694 C 239.918 154.707,239.820 153.402,239.773 152.795 C 239.726 152.188,239.618 151.504,239.533 151.277 C 239.448 151.049,239.301 149.186,239.208 147.136 C 237.542 110.657,224.749 78.136,201.877 52.239 C 200.769 50.985,199.862 49.801,199.862 49.609 C 199.862 49.417,199.645 49.060,199.379 48.815 C 199.113 48.570,197.923 47.371,196.734 46.149 C 192.615 41.919,188.446 38.096,184.037 34.507 C 183.757 34.279,183.197 33.803,182.793 33.449 C 182.388 33.095,181.591 32.488,181.021 32.101 C 180.452 31.714,179.986 31.297,179.986 31.176 C 179.986 31.054,179.769 30.885,179.503 30.800 C 179.237 30.714,178.585 30.272,178.054 29.816 C 177.522 29.360,177.014 28.987,176.924 28.986 C 176.833 28.986,176.399 28.675,175.957 28.296 C 175.516 27.916,175.062 27.606,174.948 27.606 C 174.834 27.605,174.505 27.369,174.217 27.081 C 173.929 26.793,173.091 26.209,172.354 25.783 C 171.617 25.358,170.580 24.672,170.048 24.260 C 168.823 23.309,157.551 16.839,157.120 16.839 C 156.943 16.839,156.798 16.715,156.798 16.563 C 156.798 16.411,156.705 16.315,156.591 16.350 C 156.477 16.384,155.017 15.738,153.347 14.912 C 151.677 14.087,150.248 13.401,150.173 13.388 C 149.494 13.270,147.964 12.531,147.964 12.321 C 147.964 12.174,147.893 12.125,147.806 12.212 C 147.719 12.299,146.415 11.831,144.908 11.171 C 143.400 10.512,142.167 10.020,142.167 10.078 C 142.167 10.136,141.603 9.933,140.913 9.628 C 140.223 9.323,139.447 9.026,139.188 8.967 C 138.928 8.909,137.319 8.370,135.611 7.770 C 133.903 7.169,132.505 6.733,132.505 6.799 C 132.505 6.866,132.226 6.767,131.884 6.579 C 131.542 6.392,131.014 6.199,130.711 6.151 C 130.407 6.103,129.476 5.859,128.640 5.609 C 127.805 5.358,126.932 5.117,126.700 5.072 C 126.468 5.028,125.474 4.795,124.492 4.555 C 123.509 4.314,122.395 4.055,122.015 3.978 C 121.636 3.902,120.829 3.707,120.222 3.547 C 118.707 3.146,118.127 3.016,117.322 2.897 C 116.669 2.800,115.850 2.649,114.286 2.335 C 113.247 2.126,112.354 1.988,110.904 1.814 C 108.033 1.469,106.964 1.317,106.828 1.236 C 106.750 1.190,105.818 1.074,104.758 0.979 C 103.697 0.884,102.333 0.754,101.725 0.691 C 98.801 0.385,83.820 -0.050,83.563 0.163 " stroke="none" fill="#ff0000" fill-rule="evenodd"></path><path id="path2" d="M307.384 101.208 C 265.451 105.676,247.415 157.214,277.399 186.888 C 305.091 214.291,352.004 201.081,361.464 163.215 C 369.832 129.721,341.769 97.544,307.384 101.208 M316.910 116.902 C 330.517 118.511,342.018 127.849,345.851 140.400 C 347.343 145.287,347.570 146.399,347.729 149.620 C 349.006 175.408,322.649 193.717,299.097 183.402 C 280.587 175.296,272.879 153.964,281.872 135.729 C 288.206 122.887,302.512 115.199,316.910 116.902 " stroke="none" fill="#00fe81" fill-rule="evenodd"></path></g></svg>